<svg width="32" height="32" viewBox="0 0 32 32" fill="none" xmlns="http://www.w3.org/2000/svg">
<path fill-rule="evenodd" clip-rule="evenodd" d="M25.3332 5.33334C27.5424 5.33334 29.3332 7.12421 29.3332 9.33334V22.6667C29.3332 24.8759 27.5424 26.6667 25.3332 26.6667H6.66657C4.45742 26.6667 2.66656 24.8759 2.66656 22.6667V9.33334C2.66656 7.12421 4.45742 5.33334 6.66657 5.33334H25.3332ZM26.6665 12.8331H17.3333C16.597 12.8331 15.7922 12.2734 15.536 11.5831L14.2056 8.00001H6.66657C5.93018 8.00001 5.33323 8.59697 5.33323 9.33334V22.6667C5.33323 23.4031 5.93018 24 6.66657 24H25.3332C26.0696 24 26.6665 23.4031 26.6665 22.6667V12.8331Z" fill="white"/>
</svg>
